<svg id="visual" viewBox="0 0 900 600" width="900" height="600" xmlns="http://www.w3.org/2000/svg" xmlns:xlink="http://www.w3.org/1999/xlink" version="1.1"><rect x="0" y="0" width="900" height="600" fill="#c41982"></rect><path d="M0 476L21.5 476.5C43 477 86 478 128.8 485.2C171.7 492.3 214.3 505.7 257.2 495.3C300 485 343 451 385.8 438.3C428.7 425.7 471.3 434.3 514.2 449.3C557 464.3 600 485.7 642.8 480.2C685.7 474.7 728.3 442.3 771.2 429.8C814 417.3 857 424.7 878.5 428.3L900 432L900 601L878.5 601C857 601 814 601 771.2 601C728.3 601 685.7 601 642.8 601C600 601 557 601 514.2 601C471.3 601 428.7 601 385.8 601C343 601 300 601 257.2 601C214.3 601 171.7 601 128.8 601C86 601 43 601 21.5 601L0 601Z" fill="#0049b7" stroke-linecap="round" stroke-linejoin="miter"></path></svg>