<svg id="visual" viewBox="0 0 960 540" width="960" height="540" xmlns="http://www.w3.org/2000/svg" xmlns:xlink="http://www.w3.org/1999/xlink" version="1.1"><rect x="0" y="0" width="960" height="540" fill="#F7CACA"></rect><defs><linearGradient id="grad1_0" x1="43.8%" y1="100%" x2="100%" y2="0%"><stop offset="14.444444444444446%" stop-color="#f7caca" stop-opacity="1"></stop><stop offset="85.55555555555554%" stop-color="#f7caca" stop-opacity="1"></stop></linearGradient></defs><defs><linearGradient id="grad2_0" x1="0%" y1="100%" x2="56.3%" y2="0%"><stop offset="14.444444444444446%" stop-color="#f7caca" stop-opacity="1"></stop><stop offset="85.55555555555554%" stop-color="#f7caca" stop-opacity="1"></stop></linearGradient></defs><g transform="translate(960, 540)"><path d="M-486 0C-467.9 -44.9 -449.8 -89.8 -440.3 -143.1C-430.9 -196.3 -430 -257.8 -393.2 -285.7C-356.4 -313.5 -283.5 -307.6 -237.5 -326.8C-191.4 -346.1 -172 -390.6 -136.9 -421.3C-101.8 -452 -50.9 -469 0 -486L0 0Z" fill="#FBAE3C"></path></g><g transform="translate(0, 0)"><path d="M486 0C432.7 35.1 379.4 70.2 370 120.2C360.5 170.2 394.8 235.2 384.3 279.2C373.7 323.2 318.3 346.3 273.3 376.2C228.4 406.1 194 442.8 150.2 462.2C106.4 481.6 53.2 483.8 0 486L0 0Z" fill="#FBAE3C"></path></g></svg>